<?xml version="1.0" encoding="UTF-8" standalone="no"?>
<!-- Svg Vector Icons : http://www.onlinewebfonts.com/icon -->

<svg
   xmlns:dc="http://purl.org/dc/elements/1.1/"
   xmlns:cc="http://creativecommons.org/ns#"
   xmlns:rdf="http://www.w3.org/1999/02/22-rdf-syntax-ns#"
   xmlns:svg="http://www.w3.org/2000/svg"
   xmlns="http://www.w3.org/2000/svg"
   xmlns:sodipodi="http://sodipodi.sourceforge.net/DTD/sodipodi-0.dtd"
   xmlns:inkscape="http://www.inkscape.org/namespaces/inkscape"
   version="1.1"
   x="0px"
   y="0px"
   viewBox="0 0 1000 1000"
   enable-background="new 0 0 1000 1000"
   xml:space="preserve"
   id="svg110"
   sodipodi:docname="Rocket_Missile_edited.svg"
   inkscape:version="0.92.2 5c3e80d, 2017-08-06"
   inkscape:export-filename="/Users/gutter/iCloud/emacs/galactic-emacs-logo/Rocket_Missile_edited.png"
   inkscape:export-xdpi="54.107449"
   inkscape:export-ydpi="54.107449"><sodipodi:namedview
     pagecolor="#ffffff"
     bordercolor="#666666"
     borderopacity="1"
     objecttolerance="10"
     gridtolerance="10"
     guidetolerance="10"
     inkscape:pageopacity="0"
     inkscape:pageshadow="2"
     inkscape:window-width="2567"
     inkscape:window-height="1400"
     id="namedview112"
     showgrid="false"
     inkscape:zoom="1"
     inkscape:cx="428"
     inkscape:cy="470.5"
     inkscape:window-x="-2"
     inkscape:window-y="0"
     inkscape:window-maximized="0"
     inkscape:current-layer="layer1"
     inkscape:measure-start="0,0"
     inkscape:measure-end="0,0"
     showguides="false" /><defs
     id="defs114" /><metadata
     id="metadata90"> Svg Vector Icons : http://www.onlinewebfonts.com/icon <rdf:RDF><cc:Work
     rdf:about=""><dc:format>image/svg+xml</dc:format><dc:type
       rdf:resource="http://purl.org/dc/dcmitype/StillImage" /><dc:title /></cc:Work></rdf:RDF></metadata><g
     inkscape:groupmode="layer"
     id="layer2"
     inkscape:label="Background"
     style="display:inline"><g
       id="g4179"
       transform="translate(317.05,-662.35588)"><path
         d="m 425.08578,1176.2296 c -0.53277,-26.3924 -10.36132,-135.7737 -12.20007,-135.7737 -1.2629,0 -10.96526,15.8128 -17.99608,29.3299 l -6.69382,12.8691 0.52561,-24.7503 c 0.40386,-19.0176 0.24943,-24.5796 -0.66674,-24.0134 -2.92083,1.8052 -50.92363,67.6452 -72.06042,98.8371 -5.13299,7.5749 -9.46874,13.6364 -9.635,13.4702 -0.16625,-0.1663 9.26433,-19.4139 20.95685,-42.7725 23.18122,-46.31 39.31139,-80.6259 38.34999,-81.5874 -0.86826,-0.8682 -19.67728,9.2564 -31.74859,17.0899 -5.61306,3.6425 -10.43125,6.397 -10.70709,6.1211 -0.27584,-0.2758 0.82937,-2.2097 2.45602,-4.2976 7.35029,-9.4344 22.65778,-34.6759 22.07891,-36.4075 -0.5201,-1.5557 -62.61418,25.8706 -107.09309,47.3019 -11.44854,5.5162 -21.00943,9.8356 -21.24643,9.5986 -0.237,-0.2369 4.85099,-3.7408 11.30663,-7.7863 35.33658,-22.1441 104.23754,-69.2045 104.23754,-71.1958 0,-0.8061 -6.29095,-0.927 -22.75,-0.4373 -12.5125,0.3723 -24.325,0.9393 -26.25,1.26 -2.14331,0.357 3.47727,-2.9336 14.5,-8.4891 9.9,-4.9896 20.46046,-10.6293 23.4677,-12.5326 5.0704,-3.2092 5.28839,-3.4999 3,-4.0014 -8.95136,-1.9618 -84.82678,-8.308 -127.46338,-10.6611 -10.99763,-0.607 -20.11587,-1.2237 -20.26277,-1.3706 -0.14689,-0.1469 7.05117,-0.5771 15.99569,-0.9561 19.41975,-0.8227 52.79729,-3.0727 76.26276,-5.1409 22.1205,-1.9496 56.91298,-5.5687 57.31206,-5.9615 0.67553,-0.665 -17.20239,-10.8007 -30.53933,-17.314 l -14.07846,-6.8755 25.40286,0.4728 c 14.46202,0.2691 25.38797,0.091 25.36829,-0.4135 -0.0668,-1.712 -68.48825,-48.2566 -101.20167,-68.8439 -8.65494,-5.4467 -15.5378,-10.1016 -15.29524,-10.3442 0.24255,-0.2425 5.74886,2.1471 12.23625,5.3103 46.3487,22.5992 115.62781,53.4923 116.9635,52.1567 1.08221,-1.0822 -15.70997,-28.4143 -23.9085,-38.9151 -1.6103,-2.0625 -2.70857,-3.75 -2.4406,-3.75 0.26797,0 5.15817,3.1183 10.8671,6.9295 11.9208,7.9582 33.81374,19.7407 33.81374,18.1981 0,-2.9836 -46.64259,-99.10207 -57.71182,-118.92931 -1.93497,-3.46593 -3.33212,-6.4877 -3.10478,-6.71504 0.22734,-0.22734 5.92342,7.64163 12.65795,17.4866 23.63232,34.54722 69.21628,97.03015 70.78765,97.03015 0.82052,0 -0.33842,-45.33735 -1.26535,-49.50002 -0.36742,-1.65 2.46252,3.075 6.28875,10.50002 8.60264,16.6939 18.32289,32.4523 19.32904,31.3361 1.69579,-1.8812 9.11087,-82.70258 11.19747,-122.04784 0.67704,-12.76645 1.31548,-23.11645 1.41876,-23 0.10327,0.11645 0.70694,8.98672 1.34147,19.71172 1.72104,29.08926 4.83519,67.54876 7.61138,94.00002 3.08577,29.4009 3.47424,32.1027 4.52255,31.4548 1.58377,-0.9788 12.2559,-18.8966 18.73504,-31.4548 l 6.4491,-12.50002 -0.61882,5.5 c -1.16967,10.39592 -1.82265,38.50352 -0.98092,42.22402 l 0.84253,3.724 18.08942,-24.224 c 19.37954,-25.95166 44.23287,-60.87348 56.92154,-79.98144 4.29415,-6.46658 7.97611,-11.58884 8.18214,-11.38281 0.20604,0.20603 -4.21843,9.09687 -9.83213,19.75742 -17.33323,32.91617 -52.55591,106.52123 -51.48617,107.59093 0.8863,0.8863 19.86991,-9.6622 34.03234,-18.9106 4.89893,-3.1991 9.04596,-5.6777 9.21563,-5.5081 0.16966,0.1697 -2.90961,4.9755 -6.84283,10.6797 -9.16931,13.2978 -19.07576,30.4323 -17.83401,30.8462 2.24735,0.7491 87.84107,-37.6189 120.05146,-53.814 4.51526,-2.2702 8.40122,-3.936 8.63546,-3.7018 0.23424,0.2342 -6.89983,5.0716 -15.85348,10.7496 -23.51958,14.9151 -58.23416,38.1267 -81.27936,54.3468 -14.6359,10.3013 -19.46358,14.1817 -18,14.4682 1.1,0.2154 12.92887,0.1767 26.28639,-0.086 l 24.2864,-0.4775 -7.2864,3.1882 c -9.84973,4.3098 -17.99506,8.4974 -28.49301,14.6485 -9.97044,5.8421 -9.77872,5.7107 -9.1909,6.2985 1.91296,1.913 117.87357,11.2481 145.09036,11.6802 11.08615,0.176 6.50715,0.6644 -17.69285,1.8871 -45.31322,2.2896 -127.78916,9.6294 -127.22488,11.3222 0.45258,1.3578 22.52053,13.5218 34.89747,19.2357 5.86993,2.7099 10.58304,5.0167 10.47358,5.1261 -0.10946,0.1095 -4.46213,-0.2131 -9.6726,-0.7169 -11.45631,-1.1077 -42.98856,-1.2695 -42.93599,-0.2202 0.0787,1.5707 72.07029,50.5467 103.22799,70.2261 8.12106,5.1294 14.60594,9.4857 14.41085,9.6808 -0.1951,0.1951 -9.76461,-4.1944 -21.26557,-9.7545 -39.04286,-18.8751 -108.03924,-49.6074 -109.06635,-48.5803 -1.02089,1.0209 15.4711,27.7032 24.18169,39.1233 1.49115,1.955 2.41246,3.5546 2.04734,3.5546 -0.36512,0 -3.90603,-2.1766 -7.86869,-4.8368 -13.3413,-8.9564 -36.70484,-22.0535 -36.70484,-20.576 0,1.9387 22.23308,48.6407 40.15679,84.3518 11.43922,22.7914 20.66254,41.575 20.49625,41.7413 -0.16628,0.1663 -4.75824,-6.3313 -10.20435,-14.439 -12.84038,-19.1157 -38.94658,-55.6155 -57.3219,-80.1434 -14.13432,-18.8668 -14.55908,-19.322 -15.39795,-16.5 -0.84531,2.8437 -0.27056,31.5428 0.84918,42.4021 l 0.56712,5.5 -7.37279,-14 c -7.122,-13.5238 -17.67584,-30.9299 -18.34686,-30.2588 -1.25821,1.2582 -7.7761,69.8664 -9.90475,104.2588 -0.88507,14.3 -1.97821,28.925 -2.4292,32.5 l -0.81998,6.5 z m 13.50062,-142.856 c 25.7723,-3.5846 49.19784,-17.8285 63.49436,-38.6078 4.37534,-6.3593 10.33643,-19.6262 12.49558,-27.8099 2.54431,-9.6436 2.53423,-32.236 -0.0185,-41.4977 -5.48793,-19.9108 -17.91243,-37.9324 -34.17944,-49.577 -8.03106,-5.7489 -21.0386,-11.8875 -30.92838,-14.5958 -6.63167,-1.8161 -10.65114,-2.1908 -23.5,-2.1908 -12.84886,0 -16.86833,0.3747 -23.5,2.1908 -32.17744,8.8118 -56.44033,32.7262 -65.10782,64.1728 -2.55275,9.2617 -2.56283,31.8541 -0.0185,41.4977 2.18064,8.2651 8.13163,21.4672 12.61199,27.9791 7.89541,11.4756 21.52512,23.2362 34.51435,29.7813 15.60933,7.8654 36.17964,11.1549 54.1364,8.6573 z"
         id="path4183"
         inkscape:connector-curvature="0" /><path
         d=""
         id="path4187"
         inkscape:connector-curvature="0"
         transform="translate(179.95,245.35588)" /></g></g><g
     inkscape:groupmode="layer"
     id="layer1"
     inkscape:label="Spaceship"
     style="display:inline"><g
       transform="matrix(0.75595752,0,0,0.72502255,10.6034,243.83411)"
       id="g3949"><path
         d="m 371.07223,555.61776 c 20.06137,43.75974 0,0 0,0 l 35.23586,32.82869 C 595.13811,411.14398 763.57954,244.33559 949.57223,51.717759 641.57222,38.217759 479.92205,285.72852 479.92205,285.72852 373.36147,260.62811 249.7794,585.41263 249.7794,585.41263 c 84.1,-17.4 121.29283,-29.79487 121.29283,-29.79487 z"
         id="path96"
         inkscape:connector-curvature="0"
         sodipodi:nodetypes="ccccccc" /><path
         sodipodi:nodetypes="ccccccc"
         inkscape:connector-curvature="0"
         id="path3868"
         d="m 445.67223,630.21776 c -43.75974,-20.06137 0,0 0,0 L 406.30809,588.44645 C 583.61056,399.61643 760.56516,241.32121 949.57223,51.717759 963.07223,359.71777 715.56147,521.36794 715.56147,521.36794 740.66188,627.92852 415.87736,751.51058 415.87736,751.51058 c 17.4,-84.09999 29.79487,-121.29282 29.79487,-121.29282 z" /></g></g><path
     d="m 159.49324,658.74303 c -37.3,-120.4 -8.4,-257.1 86.8,-352.3 66.1,-66.1 152.1,-100.2 238.9,-102.4 l 28.1,-44.7 c -6.3,-0.3 -12.7,-0.4 -19,-0.4 -51.4,0 -101.4,9.7 -148.8,29 -49.1,19.9 -93.1,49.1 -130.8,86.9 -37.7,37.7 -67,81.8 -86.9,130.8 -19.2,47.4 -29,97.5 -29,148.8 0,48.9 8.8,96.5 26.2,141.9 z"
     id="path92"
     inkscape:connector-curvature="0" /><path
     d="m 796.80718,498.36373 c -2.2,86.7 -36.4,172.8 -102.4,238.9 -95.2,95.2 -231.9,124.1 -352.3,86.8 l -37.5,34.5 c 45.3,17.4 93,26.2 141.9,26.2 51.4,0 101.4,-9.7 148.8,-29 49.1,-19.9 93.1,-49.1 130.8,-86.9 37.7,-37.7 67,-81.8 86.9,-130.8 19.2,-47.4 29,-97.5 29,-148.8 0,-6.4 -0.2,-12.7 -0.5,-19 z"
     id="path94"
     inkscape:connector-curvature="0" /><g
     id="g3907"
     transform="matrix(0.04696956,0,0,0.06088596,603.22444,658.16925)"><path
       style="stroke-width:0.86894679"
       inkscape:connector-curvature="0"
       id="path106"
       d="M -444.32503,969.22582 -851.97265,653.78745 -426.68971,955.04357 Z" /><path
       d="M -409.05439,969.22582 -1.40677,653.78745 -426.68971,955.04357 Z"
       id="path3879"
       inkscape:connector-curvature="0"
       style="stroke-width:0.86894679" /><path
       d="M -444.32503,969.22582 -851.97265,1284.6642 -426.68971,983.40807 Z"
       id="path3899"
       inkscape:connector-curvature="0"
       style="stroke-width:0.86894679" /><path
       style="stroke-width:0.86894679"
       inkscape:connector-curvature="0"
       id="path3901"
       d="M -409.05439,969.22582 -1.40677,1284.6642 -426.68971,983.40807 Z" /></g><g
     transform="matrix(0.02008377,0,0,0.03226897,639.68344,679.54191)"
     id="g3917"><path
       d="M -444.32503,969.22582 -851.97265,653.78745 -426.68971,955.04357 Z"
       id="path3909"
       inkscape:connector-curvature="0"
       style="stroke-width:0.86894679" /><path
       style="stroke-width:0.86894679"
       inkscape:connector-curvature="0"
       id="path3911"
       d="M -409.05439,969.22582 -1.40677,653.78745 -426.68971,955.04357 Z" /><path
       style="stroke-width:0.86894679"
       inkscape:connector-curvature="0"
       id="path3913"
       d="M -444.32503,969.22582 -851.97265,1284.6642 -426.68971,983.40807 Z" /><path
       d="M -409.05439,969.22582 -1.40677,1284.6642 -426.68971,983.40807 Z"
       id="path3915"
       inkscape:connector-curvature="0"
       style="stroke-width:0.86894679" /></g><g
     transform="matrix(0.02928153,0,0,0.04228492,620.58691,631.21973)"
     id="g3927"><path
       d="M -444.32503,969.22582 -851.97265,653.78745 -426.68971,955.04357 Z"
       id="path3919"
       inkscape:connector-curvature="0"
       style="stroke-width:0.86894679" /><path
       style="stroke-width:0.86894679"
       inkscape:connector-curvature="0"
       id="path3921"
       d="M -409.05439,969.22582 -1.40677,653.78745 -426.68971,955.04357 Z" /><path
       style="stroke-width:0.86894679"
       inkscape:connector-curvature="0"
       id="path3923"
       d="M -444.32503,969.22582 -851.97265,1284.6642 -426.68971,983.40807 Z" /><path
       d="M -409.05439,969.22582 -1.40677,1284.6642 -426.68971,983.40807 Z"
       id="path3925"
       inkscape:connector-curvature="0"
       style="stroke-width:0.86894679" /></g><style
     id="style4139"
     type="text/css">
	.st0{fill:#FFC300;}
	.st1{font-family:'MyriadPro-Regular';}
	.st2{font-size:33px;}
</style></svg>